<svg xmlns="http://www.w3.org/2000/svg" xmlns:svg="http://www.w3.org/2000/svg" id="svg1" width="48mm" height="48mm" version="1.1" viewBox="0 0 48 48"><g id="layer1"><path style="fill:#fa892d;fill-opacity:1;stroke:#fff;stroke-width:1.48591;stroke-dasharray:none;stroke-opacity:1" id="path6-4-7-4-7-0" d="M 46.692543,23.912836 A 22.46302,22.463377 0 0 1 24.239822,46.376211 22.46302,22.463377 0 0 1 1.7665118,23.933435 22.46302,22.463377 0 0 1 24.198625,1.4494803 22.46302,22.463377 0 0 1 46.692505,23.871638" transform="matrix(1,0,-0.0056317,0.99998414,0,0)"/><rect style="fill:#1f9cdf;fill-opacity:1;stroke:none;stroke-width:1.5875;stroke-linecap:round;stroke-linejoin:round;stroke-dasharray:none;stroke-opacity:1" id="rect44-6" width="1.821" height="29.986" x="23.525" y="7.566" ry=".525"/><path style="fill:#1f9cdf;fill-opacity:1;stroke:none;stroke-width:1.5875;stroke-linecap:round;stroke-linejoin:round;stroke-dasharray:none;stroke-opacity:1" id="path45-3" d="m 27.059464,14.848467 a 2.5701923,2.4631009 0 0 1 -2.569014,2.463101 2.5701923,2.4631009 0 0 1 -2.57137,-2.460842 2.5701923,2.4631009 0 0 1 2.566656,-2.465358 2.5701923,2.4631009 0 0 1 2.573723,2.458582"/><path style="fill:#1f9cdf;fill-opacity:1;stroke:none;stroke-width:1.5875;stroke-linecap:round;stroke-linejoin:round;stroke-dasharray:none;stroke-opacity:1" id="path46-1" d="M 19.027616,35.30291 29.0942,35.40995 c 1.880676,0.15782 2.641404,1.09961 3.10566,2.24892 H 16.02908 c 0.659724,-0.84711 0.86268,-1.77725 2.998536,-2.35596 z"/><path style="fill:#1f9cdf;fill-opacity:1;stroke:none;stroke-width:1.5875;stroke-linecap:round;stroke-linejoin:round;stroke-dasharray:none;stroke-opacity:1" id="path47-5" d="m 13.940792,14.68782 21.15054,-0.6961 v 0.74964 l -21.739536,0.6961 z"/><path style="fill:none;fill-opacity:1;stroke:#fcdb44;stroke-width:.7476;stroke-linecap:round;stroke-linejoin:round;stroke-dasharray:none;stroke-opacity:1" id="path49-8" d="M 7.8901272,25.82532 12.762764,15.43746 17.58188,26.03951"/><path style="fill:#f9d943;fill-opacity:1;stroke:none;stroke-width:1.5875;stroke-linecap:round;stroke-linejoin:round;stroke-dasharray:none;stroke-opacity:1" id="path48-0" d="M 7.4618952,25.73196 18.06392,25.78546 C 16.634588,32.72788 9.2313552,32.47893 7.5154272,26.32091"/><path style="fill:none;fill-opacity:1;stroke:#fcdb44;stroke-width:.7476;stroke-linecap:round;stroke-linejoin:round;stroke-dasharray:none;stroke-opacity:1" id="path49-9-9" d="M 31.246256,25.15036 36.118892,14.7625 40.938008,25.36454"/><path style="fill:#f9d943;fill-opacity:1;stroke:none;stroke-width:1.5875;stroke-linecap:round;stroke-linejoin:round;stroke-dasharray:none;stroke-opacity:1" id="path48-1-2" d="m 30.730676,25.14296 10.602024,0.0535 c -1.429332,6.94242 -8.832564,6.69347 -10.548492,0.53546"/><path style="fill:#1f9cdf;fill-opacity:1;stroke:none;stroke-width:1.5875;stroke-linecap:round;stroke-linejoin:round;stroke-dasharray:none;stroke-opacity:1" id="path44-2-9" d="m 37.426161,14.243532 a 1.3630502,1.2873253 0 0 1 -1.362426,1.287325 1.3630502,1.2873253 0 0 1 -1.363674,-1.286144 1.3630502,1.2873253 0 0 1 1.361174,-1.288505 1.3630502,1.2873253 0 0 1 1.364923,1.284963"/><path style="fill:#1f9cdf;fill-opacity:1;stroke:none;stroke-width:1.5875;stroke-linecap:round;stroke-linejoin:round;stroke-dasharray:none;stroke-opacity:1" id="path44-7" d="m 14.359524,15.207354 a 1.3630502,1.2873253 0 0 1 -1.362425,1.287325 1.3630502,1.2873253 0 0 1 -1.363674,-1.286145 1.3630502,1.2873253 0 0 1 1.361174,-1.288504 1.3630502,1.2873253 0 0 1 1.364923,1.284963"/></g></svg>