<?xml version="1.0" encoding="UTF-8" standalone="no"?>
<!-- Created with Inkscape (http://www.inkscape.org/) -->

<svg
   width="48mm"
   height="48mm"
   viewBox="0 0 48 48"
   version="1.1"
   id="svg1"
   inkscape:version="1.4.2 (ebf0e940, 2025-05-08)"
   sodipodi:docname="mxt-icon--learn.svg"
   xmlns:inkscape="http://www.inkscape.org/namespaces/inkscape"
   xmlns:sodipodi="http://sodipodi.sourceforge.net/DTD/sodipodi-0.dtd"
   xmlns="http://www.w3.org/2000/svg"
   xmlns:svg="http://www.w3.org/2000/svg">
  <sodipodi:namedview
     id="namedview1"
     pagecolor="#ffffff"
     bordercolor="#000000"
     borderopacity="0.25"
     inkscape:showpageshadow="2"
     inkscape:pageopacity="0.0"
     inkscape:pagecheckerboard="0"
     inkscape:deskcolor="#d1d1d1"
     inkscape:document-units="mm"
     inkscape:zoom="1.4823793"
     inkscape:cx="94.442762"
     inkscape:cy="10.793459"
     inkscape:window-width="1728"
     inkscape:window-height="971"
     inkscape:window-x="0"
     inkscape:window-y="38"
     inkscape:window-maximized="1"
     inkscape:current-layer="layer1" />
  <defs
     id="defs1" />
  <g
     inkscape:label="Layer 1"
     inkscape:groupmode="layer"
     id="layer1">
    <path
       style="fill:#22ba90;fill-opacity:1;stroke:#ffffff;stroke-width:1.48591;stroke-dasharray:none;stroke-opacity:1"
       id="path6-4-9"
       sodipodi:type="arc"
       sodipodi:cx="24.184273"
       sodipodi:cy="24.045288"
       sodipodi:rx="22.46302"
       sodipodi:ry="22.463377"
       sodipodi:start="0"
       sodipodi:end="6.2813513"
       sodipodi:open="true"
       sodipodi:arc-type="arc"
       d="M 46.647293,24.045288 A 22.46302,22.463377 0 0 1 24.194572,46.508663 22.46302,22.463377 0 0 1 1.7212619,24.065887 22.46302,22.463377 0 0 1 24.153375,1.5819323 22.46302,22.463377 0 0 1 46.647255,24.00409"
       transform="matrix(1,0,-0.0056317,0.99998414,0,0)" />
    <path
       style="fill:#fadc40;fill-opacity:1;stroke:none;stroke-width:1.0795;stroke-dasharray:none;stroke-opacity:1"
       d="m 7.0083843,20.408522 17.1346167,6.53257 16.92043,-6.31838 -17.56298,-7.38931 z"
       id="path12-6-3" />
    <path
       style="fill:#fadc40;fill-opacity:1;stroke:none;stroke-width:1.0795;stroke-dasharray:none;stroke-opacity:1"
       d="m 14.183501,24.692172 0.10704,5.67585 c 7.07305,3.80898 13.30901,3.43254 18.95517,0.10704 l 0.21412,-5.46166 -9.6382,3.42692 z"
       id="path13-8-1"
       sodipodi:nodetypes="cccccc" />
    <path
       style="fill:#f62e77;fill-opacity:1;stroke:#f62d77;stroke-width:1.08;stroke-dasharray:none;stroke-opacity:1"
       d="m 35.820911,32.798962 3.029,-0.0757 -0.98443,-3.78624 0.0379,-1.43877 0.0757,-5.33862 -1.02228,0.41649 v 4.95999 l -0.0379,1.62809 z"
       id="path14-6-0" />
  </g>
</svg>
