<svg xmlns="http://www.w3.org/2000/svg" xmlns:svg="http://www.w3.org/2000/svg" id="svg1" width="48mm" height="48mm" version="1.1" viewBox="0 0 48 48"><g id="layer1"><path style="fill:#22bb90;fill-opacity:1;stroke:#fff;stroke-width:1.48591;stroke-dasharray:none;stroke-opacity:1" id="path6-4-7-4-7" d="M 46.74555,23.970205 A 22.46302,22.463377 0 0 1 24.292829,46.43358 22.46302,22.463377 0 0 1 1.819519,23.990804 22.46302,22.463377 0 0 1 24.251632,1.5068496 22.46302,22.463377 0 0 1 46.745512,23.929007" transform="matrix(1,0,-0.0056317,0.99998414,0,0)"/><g id="g43" transform="translate(91.309939,131.86706)"><path style="fill:#f9db3f;fill-opacity:1;stroke:none;stroke-width:1.32292;stroke-linecap:round;stroke-linejoin:round;stroke-dasharray:none;stroke-opacity:1" id="path39-8" d="m -79.964558,-101.82063 c -2.253691,-4.16015 -1.952482,-8.5028 0.504833,-12.99946 2.829482,-2.13164 4.098694,-4.75086 11.989795,-5.30075 4.378788,0.44235 6.383998,1.74781 7.067669,3.53384 1.405557,2.06611 0.908196,3.61324 -1.388293,4.6697 -2.996934,1.34919 -5.487941,2.91835 -0.883459,7.57251 1.330216,2.84185 -0.601235,4.26897 -2.776583,5.174539 -2.080864,1.067885 -3.744814,2.433566 -8.077335,1.893125 -2.145542,-0.314652 -4.291085,-1.873129 -6.436627,-4.543504 z"/><path style="fill:#ed3271;fill-opacity:1;stroke:none;stroke-width:.49725;stroke-dasharray:none;stroke-opacity:1" id="path3-0-6-1-3" d="m -66.681021,-116.45045 a 1.8083439,1.8083441 0 0 1 -1.801178,1.80833 1.8083439,1.8083441 0 0 1 -1.815453,-1.794 1.8083439,1.8083441 0 0 1 1.786791,-1.82254 1.8083439,1.8083441 0 0 1 1.829613,1.77955"/><path style="fill:#ed3271;fill-opacity:1;stroke:none;stroke-width:.49725;stroke-dasharray:none;stroke-opacity:1" id="path3-0-6-1-4-71" d="m -72.414358,-114.48815 a 1.8083439,1.8083441 0 0 1 -1.801179,1.80833 1.8083439,1.8083441 0 0 1 -1.815452,-1.794 1.8083439,1.8083441 0 0 1 1.786791,-1.82255 1.8083439,1.8083441 0 0 1 1.829613,1.77956"/><path style="fill:#1aabf9;fill-opacity:1;stroke:none;stroke-width:.49725;stroke-dasharray:none;stroke-opacity:1" id="path3-0-6-1-4-7-2" d="m -76.24246,-109.86176 a 1.8083439,1.8083441 0 0 1 -1.801179,1.80833 1.8083439,1.8083441 0 0 1 -1.815452,-1.794 1.8083439,1.8083441 0 0 1 1.786791,-1.82255 1.8083439,1.8083441 0 0 1 1.829613,1.77956"/><path style="fill:#1aabf9;fill-opacity:1;stroke:none;stroke-width:.49725;stroke-dasharray:none;stroke-opacity:1" id="path3-0-6-1-4-7-6-6" d="m -64.927832,-102.94154 a 1.8083439,1.8083441 0 0 1 -1.801178,1.80833 1.8083439,1.8083441 0 0 1 -1.815453,-1.794 1.8083439,1.8083441 0 0 1 1.786791,-1.82255 1.8083439,1.8083441 0 0 1 1.829613,1.77956"/><path style="fill:#9dcd33;fill-opacity:1;stroke:none;stroke-width:.49725;stroke-dasharray:none;stroke-opacity:1" id="path3-0-6-1-4-7-6-1-1" d="m -70.268812,-100.4508 a 1.8083439,1.8083441 0 0 1 -1.801179,1.808332 1.8083439,1.8083441 0 0 1 -1.815452,-1.794002 1.8083439,1.8083441 0 0 1 1.786791,-1.82254 1.8083439,1.8083441 0 0 1 1.829613,1.77955"/><path style="fill:#f3bc1d;fill-opacity:1;stroke:none;stroke-width:.49725;stroke-dasharray:none;stroke-opacity:1" id="path3-0-6-1-4-7-6-1-9-7" d="m -75.295088,-104.22115 a 1.8083439,1.8083441 0 0 1 -1.801178,1.80833 1.8083439,1.8083441 0 0 1 -1.815453,-1.794 1.8083439,1.8083441 0 0 1 1.786791,-1.82255 1.8083439,1.8083441 0 0 1 1.829613,1.77956"/><path style="fill:#ed3271;fill-opacity:1;stroke:none;stroke-width:1.32292;stroke-linecap:round;stroke-linejoin:round;stroke-dasharray:none;stroke-opacity:1" id="path40-6" d="m -57.909648,-104.94428 c 0.833251,0.77252 1.322588,0.85722 1.92468,1.16742 -1.526894,3.14282 -3.16599,6.173434 -5.111441,8.897692 -0.518653,0.684238 -1.11159,1.145627 -1.798468,1.32519 -0.480491,-0.176548 -1.003747,-0.246186 -1.325189,-0.820357 -0.194735,-0.869208 0.297491,-1.640279 0.662596,-2.42951 1.596545,-2.713479 3.548477,-5.426955 5.647822,-8.140435 z"/><path style="fill:#1aabf9;fill-opacity:1;stroke:none;stroke-width:1.32292;stroke-linecap:round;stroke-linejoin:round;stroke-dasharray:none;stroke-opacity:1" id="path41-5" d="m -58.004303,-105.00739 c 0.605931,0.61601 1.228613,1.19294 2.082438,1.23053 1.378446,-0.42631 1.520965,-1.39335 1.577604,-2.39795 -0.399129,-0.72623 -0.974785,-1.27594 -2.208646,-1.16743 -1.414576,0.61403 -1.43291,1.47445 -1.451396,2.33485 z"/><path style="fill:#f9db3f;fill-opacity:1;stroke:none;stroke-width:1.32292;stroke-linecap:round;stroke-linejoin:round;stroke-dasharray:none;stroke-opacity:1" id="path42-0" d="m -56.111178,-107.31069 c -0.493333,-0.58555 -0.874659,-1.26071 -0.126208,-2.83969 0.830872,-0.78943 1.661744,-1.16136 2.492616,-1.4514 0.736555,2.21102 1.583578,1.77079 2.397958,2.114 -0.307397,0.97275 -0.259688,2.07233 -1.672262,2.65037 -0.428251,0.49105 -0.941324,0.47316 -1.451396,0.47328 -0.335004,-0.47211 -0.88574,-0.72643 -1.640708,-0.94656 z"/><path style="fill:#ed3271;fill-opacity:1;stroke:none;stroke-width:1.32292;stroke-linecap:round;stroke-linejoin:round;stroke-dasharray:none;stroke-opacity:1" id="path43-4" d="m -53.807876,-111.66488 c 0.64031,-0.39101 0.914005,-1.33195 1.230532,-2.20865 0.695975,0.699 1.079007,1.64835 1.356741,2.68193 -0.05447,0.55931 -0.05949,1.06916 -0.189312,1.70382 -1.274581,0.13841 -2.048768,-0.63299 -2.397961,-2.1771 z"/></g></g></svg>