<?xml version="1.0" encoding="UTF-8" standalone="no"?>
<!-- Created with Inkscape (http://www.inkscape.org/) -->

<svg
   width="48mm"
   height="48mm"
   viewBox="0 0 48 48"
   version="1.1"
   id="svg1"
   inkscape:version="1.4.2 (ebf0e940, 2025-05-08)"
   sodipodi:docname="mxt-icon--ethics.svg"
   xmlns:inkscape="http://www.inkscape.org/namespaces/inkscape"
   xmlns:sodipodi="http://sodipodi.sourceforge.net/DTD/sodipodi-0.dtd"
   xmlns="http://www.w3.org/2000/svg"
   xmlns:svg="http://www.w3.org/2000/svg">
  <sodipodi:namedview
     id="namedview1"
     pagecolor="#ffffff"
     bordercolor="#000000"
     borderopacity="0.25"
     inkscape:showpageshadow="2"
     inkscape:pageopacity="0.0"
     inkscape:pagecheckerboard="0"
     inkscape:deskcolor="#d1d1d1"
     inkscape:document-units="mm"
     inkscape:zoom="1.4823793"
     inkscape:cx="94.442762"
     inkscape:cy="10.793459"
     inkscape:window-width="1728"
     inkscape:window-height="971"
     inkscape:window-x="0"
     inkscape:window-y="38"
     inkscape:window-maximized="1"
     inkscape:current-layer="layer1" />
  <defs
     id="defs1" />
  <g
     inkscape:label="Layer 1"
     inkscape:groupmode="layer"
     id="layer1">
    <path
       style="fill:#fa892d;fill-opacity:1;stroke:#ffffff;stroke-width:1.48591;stroke-dasharray:none;stroke-opacity:1"
       id="path6-4-7-4-7-0"
       sodipodi:type="arc"
       sodipodi:cx="24.229523"
       sodipodi:cy="23.912836"
       sodipodi:rx="22.46302"
       sodipodi:ry="22.463377"
       sodipodi:start="0"
       sodipodi:end="6.2813513"
       sodipodi:open="true"
       sodipodi:arc-type="arc"
       d="M 46.692543,23.912836 A 22.46302,22.463377 0 0 1 24.239822,46.376211 22.46302,22.463377 0 0 1 1.7665118,23.933435 22.46302,22.463377 0 0 1 24.198625,1.4494803 22.46302,22.463377 0 0 1 46.692505,23.871638"
       transform="matrix(1,0,-0.0056317,0.99998414,0,0)" />
    <rect
       style="fill:#1f9cdf;fill-opacity:1;stroke:none;stroke-width:1.5875;stroke-linecap:round;stroke-linejoin:round;stroke-dasharray:none;stroke-opacity:1"
       id="rect44-6"
       width="1.8205528"
       height="29.985579"
       x="23.525442"
       y="7.566256"
       ry="0.52513885" />
    <path
       style="fill:#1f9cdf;fill-opacity:1;stroke:none;stroke-width:1.5875;stroke-linecap:round;stroke-linejoin:round;stroke-dasharray:none;stroke-opacity:1"
       id="path45-3"
       sodipodi:type="arc"
       sodipodi:cx="24.489271"
       sodipodi:cy="14.848467"
       sodipodi:rx="2.5701923"
       sodipodi:ry="2.4631009"
       sodipodi:start="0"
       sodipodi:end="6.2813513"
       sodipodi:open="true"
       sodipodi:arc-type="arc"
       d="m 27.059464,14.848467 a 2.5701923,2.4631009 0 0 1 -2.569014,2.463101 2.5701923,2.4631009 0 0 1 -2.57137,-2.460842 2.5701923,2.4631009 0 0 1 2.566656,-2.465358 2.5701923,2.4631009 0 0 1 2.573723,2.458582" />
    <path
       style="fill:#1f9cdf;fill-opacity:1;stroke:none;stroke-width:1.5875;stroke-linecap:round;stroke-linejoin:round;stroke-dasharray:none;stroke-opacity:1"
       d="M 19.027616,35.30291 29.0942,35.40995 c 1.880676,0.15782 2.641404,1.09961 3.10566,2.24892 H 16.02908 c 0.659724,-0.84711 0.86268,-1.77725 2.998536,-2.35596 z"
       id="path46-1"
       sodipodi:nodetypes="ccccc" />
    <path
       style="fill:#1f9cdf;fill-opacity:1;stroke:none;stroke-width:1.5875;stroke-linecap:round;stroke-linejoin:round;stroke-dasharray:none;stroke-opacity:1"
       d="m 13.940792,14.68782 21.15054,-0.6961 v 0.74964 l -21.739536,0.6961 z"
       id="path47-5" />
    <path
       style="fill:none;fill-opacity:1;stroke:#fcdb44;stroke-width:0.7476;stroke-linecap:round;stroke-linejoin:round;stroke-dasharray:none;stroke-opacity:1"
       d="M 7.8901272,25.82532 12.762764,15.43746 17.58188,26.03951"
       id="path49-8" />
    <path
       style="fill:#f9d943;fill-opacity:1;stroke:none;stroke-width:1.5875;stroke-linecap:round;stroke-linejoin:round;stroke-dasharray:none;stroke-opacity:1"
       d="M 7.4618952,25.73196 18.06392,25.78546 C 16.634588,32.72788 9.2313552,32.47893 7.5154272,26.32091"
       id="path48-0"
       sodipodi:nodetypes="ccc" />
    <path
       style="fill:none;fill-opacity:1;stroke:#fcdb44;stroke-width:0.7476;stroke-linecap:round;stroke-linejoin:round;stroke-dasharray:none;stroke-opacity:1"
       d="M 31.246256,25.15036 36.118892,14.7625 40.938008,25.36454"
       id="path49-9-9" />
    <path
       style="fill:#f9d943;fill-opacity:1;stroke:none;stroke-width:1.5875;stroke-linecap:round;stroke-linejoin:round;stroke-dasharray:none;stroke-opacity:1"
       d="m 30.730676,25.14296 10.602024,0.0535 c -1.429332,6.94242 -8.832564,6.69347 -10.548492,0.53546"
       id="path48-1-2"
       sodipodi:nodetypes="ccc" />
    <path
       style="fill:#1f9cdf;fill-opacity:1;stroke:none;stroke-width:1.5875;stroke-linecap:round;stroke-linejoin:round;stroke-dasharray:none;stroke-opacity:1"
       id="path44-2-9"
       sodipodi:type="arc"
       sodipodi:cx="36.06311"
       sodipodi:cy="14.243532"
       sodipodi:rx="1.3630502"
       sodipodi:ry="1.2873253"
       sodipodi:start="0"
       sodipodi:end="6.2813513"
       sodipodi:open="true"
       sodipodi:arc-type="arc"
       d="m 37.426161,14.243532 a 1.3630502,1.2873253 0 0 1 -1.362426,1.287325 1.3630502,1.2873253 0 0 1 -1.363674,-1.286144 1.3630502,1.2873253 0 0 1 1.361174,-1.288505 1.3630502,1.2873253 0 0 1 1.364923,1.284963" />
    <path
       style="fill:#1f9cdf;fill-opacity:1;stroke:none;stroke-width:1.5875;stroke-linecap:round;stroke-linejoin:round;stroke-dasharray:none;stroke-opacity:1"
       id="path44-7"
       sodipodi:type="arc"
       sodipodi:cx="12.996474"
       sodipodi:cy="15.207354"
       sodipodi:rx="1.3630502"
       sodipodi:ry="1.2873253"
       sodipodi:start="0"
       sodipodi:end="6.2813513"
       sodipodi:open="true"
       sodipodi:arc-type="arc"
       d="m 14.359524,15.207354 a 1.3630502,1.2873253 0 0 1 -1.362425,1.287325 1.3630502,1.2873253 0 0 1 -1.363674,-1.286145 1.3630502,1.2873253 0 0 1 1.361174,-1.288504 1.3630502,1.2873253 0 0 1 1.364923,1.284963" />
  </g>
</svg>
