<svg xmlns="http://www.w3.org/2000/svg" xmlns:svg="http://www.w3.org/2000/svg" id="svg1" width="48mm" height="48mm" version="1.1" viewBox="0 0 48 48"><g id="layer1"><path style="fill:#16b1f9;fill-opacity:1;stroke:#fff;stroke-width:1.48591;stroke-dasharray:none;stroke-opacity:1" id="path6-4-7" d="M 46.462631,23.994209 A 22.46302,22.463377 0 0 1 24.00991,46.457584 22.46302,22.463377 0 0 1 1.5366,24.014808 22.46302,22.463377 0 0 1 23.968713,1.5308535 22.46302,22.463377 0 0 1 46.462593,23.953011" transform="matrix(1,0,-0.0056317,0.99998414,0,0)"/><path style="fill:#fbda3a;fill-opacity:1;stroke:none;stroke-width:.899099;stroke-linecap:round;stroke-linejoin:round;stroke-dasharray:none;stroke-opacity:1" id="path21" d="m 17.985297,37.915771 12.940205,0.0892 -0.892428,-9.81671 c 1.079323,-2.27245 2.59263,-3.09828 3.034255,-7.49639 l 0.535456,-5.53305 c -0.85704,-0.97354 -1.313424,-2.57668 -3.748197,-1.07092 l -0.356971,-1.51712 c -0.842209,-2.08618 -2.176945,-1.21718 -3.480469,-0.53546 l -0.356971,-1.2494 C 24.423434,8.9339905 22.932091,9.6280805 21.465766,10.071981 L 20.930309,9.0903105 c -0.958369,-0.58082 -1.88262,-1.31517 -3.301983,0.17848 l -0.08924,3.3019905 -1.070913,1.16015 c -1.111813,2.65311 -1.249526,4.81918 -1.874099,7.22867 l 4.372897,8.12109 z"/><path style="fill:none;fill-opacity:1;stroke:#16b1f9;stroke-width:.528638;stroke-linecap:round;stroke-linejoin:round;stroke-dasharray:none;stroke-opacity:1" id="path22" d="m 17.628326,12.660061 6.425481,0.98167 c 1.459866,1.75586 0.392916,2.66944 -0.178486,3.7482 l -3.83744,0.44622"/><path style="fill:none;fill-opacity:1;stroke:#16b1f9;stroke-width:.528638;stroke-linecap:round;stroke-linejoin:round;stroke-dasharray:none;stroke-opacity:1" id="path23" d="m 21.555009,10.518241 v 2.32031"/><path style="fill:none;fill-opacity:1;stroke:#16b1f9;stroke-width:.528638;stroke-linecap:round;stroke-linejoin:round;stroke-dasharray:none;stroke-opacity:1" id="path24" d="m 21.376523,18.282361 c 1.331289,2.453 2.89903,1.59568 4.46214,0.80318 l 0.267728,-6.87169"/><path style="fill:none;fill-opacity:1;stroke:#16b1f9;stroke-width:.528638;stroke-linecap:round;stroke-linejoin:round;stroke-dasharray:none;stroke-opacity:1" id="path25" d="m 25.74942,19.442521 c 1.012612,0.64307 1.122647,2.38929 4.105168,0.62469 v -6.0685"/><path style="fill:none;fill-opacity:1;stroke:#16b1f9;stroke-width:.528638;stroke-linecap:round;stroke-linejoin:round;stroke-dasharray:none;stroke-opacity:1" id="path26" d="m 29.765345,20.156461 c 0.830739,1.4686 1.818087,2.15415 3.123498,1.2494"/><path style="fill:none;fill-opacity:1;stroke:#16b1f9;stroke-width:.528638;stroke-linecap:round;stroke-linejoin:round;stroke-dasharray:none;stroke-opacity:1" id="path27" d="m 19.234696,32.471961 2.052584,0.0892 0.08924,-5.26532 -1.160156,-0.80319 -0.08924,-2.14183"/><path style="fill:none;fill-opacity:1;stroke:#16b1f9;stroke-width:.528638;stroke-linecap:round;stroke-linejoin:round;stroke-dasharray:none;stroke-opacity:1" id="path28" d="m 19.413182,21.762831 2.320312,1.69561 0.267729,1.78486 0.892428,0.98167 v 8.29958"/><path style="fill:none;fill-opacity:1;stroke:#16b1f9;stroke-width:.528638;stroke-linecap:round;stroke-linejoin:round;stroke-dasharray:none;stroke-opacity:1" id="path29" d="m 24.589264,23.993901 -0.08924,6.06851"/><path style="fill:none;fill-opacity:1;stroke:#16b1f9;stroke-width:.528638;stroke-linecap:round;stroke-linejoin:round;stroke-dasharray:none;stroke-opacity:1" id="path30" d="m 28.426703,23.815411 -1.963341,1.51713 -0.08924,9.28125"/><path style="fill:none;fill-opacity:1;stroke:#16b1f9;stroke-width:.528638;stroke-linecap:round;stroke-linejoin:round;stroke-dasharray:none;stroke-opacity:1" id="path31" d="m 29.943831,24.529351 -1.963341,1.78486 0.08924,5.89002 h 1.963341"/><path style="fill:none;fill-opacity:1;stroke:#16b1f9;stroke-width:.528638;stroke-linecap:round;stroke-linejoin:round;stroke-dasharray:none;stroke-opacity:1" id="path32" d="m 30.211564,23.726158 a 0.80318511,0.80318511 0 0 1 -0.802817,0.803185 0.80318511,0.80318511 0 0 1 -0.803553,-0.802448 0.80318511,0.80318511 0 0 1 0.80208,-0.803921 0.80318511,0.80318511 0 0 1 0.804288,0.801711"/><path style="fill:none;fill-opacity:1;stroke:#16b1f9;stroke-width:.528638;stroke-linecap:round;stroke-linejoin:round;stroke-dasharray:none;stroke-opacity:1" id="path32-6" d="m 25.49231,23.244591 a 0.80318511,0.80318511 0 0 1 -0.802817,0.803185 0.80318511,0.80318511 0 0 1 -0.803553,-0.802449 0.80318511,0.80318511 0 0 1 0.80208,-0.803921 0.80318511,0.80318511 0 0 1 0.804289,0.801712"/><path style="fill:none;fill-opacity:1;stroke:#16b1f9;stroke-width:.528638;stroke-linecap:round;stroke-linejoin:round;stroke-dasharray:none;stroke-opacity:1" id="path32-6-1" d="m 19.840531,21.109062 a 0.80318511,0.80318511 0 0 1 -0.802817,0.803185 0.80318511,0.80318511 0 0 1 -0.803553,-0.802448 0.80318511,0.80318511 0 0 1 0.80208,-0.803921 0.80318511,0.80318511 0 0 1 0.804289,0.801711"/><path style="fill:none;fill-opacity:1;stroke:#16b1f9;stroke-width:.528638;stroke-linecap:round;stroke-linejoin:round;stroke-dasharray:none;stroke-opacity:1" id="path32-6-1-3" d="m 25.383019,30.992989 a 0.80318511,0.80318511 0 0 1 -0.802817,0.803185 0.80318511,0.80318511 0 0 1 -0.803553,-0.802449 0.80318511,0.80318511 0 0 1 0.80208,-0.803921 0.80318511,0.80318511 0 0 1 0.804289,0.801712"/><path style="fill:none;fill-opacity:1;stroke:#16b1f9;stroke-width:.528638;stroke-linecap:round;stroke-linejoin:round;stroke-dasharray:none;stroke-opacity:1" id="path32-6-1-3-4" d="m 23.696839,35.724037 a 0.80318511,0.80318511 0 0 1 -0.802817,0.803185 0.80318511,0.80318511 0 0 1 -0.803553,-0.802448 0.80318511,0.80318511 0 0 1 0.80208,-0.803921 0.80318511,0.80318511 0 0 1 0.804289,0.801711"/><path style="fill:none;fill-opacity:1;stroke:#16b1f9;stroke-width:.528638;stroke-linecap:round;stroke-linejoin:round;stroke-dasharray:none;stroke-opacity:1" id="path32-6-1-3-4-1" d="m 27.330636,35.689445 a 0.80318511,0.80318511 0 0 1 -0.802817,0.803186 0.80318511,0.80318511 0 0 1 -0.803553,-0.802449 0.80318511,0.80318511 0 0 1 0.80208,-0.803921 0.80318511,0.80318511 0 0 1 0.804288,0.801711"/></g></svg>