<?xml version="1.0" encoding="UTF-8" standalone="no"?>
<!-- Created with Inkscape (http://www.inkscape.org/) -->

<svg
   width="48mm"
   height="48mm"
   viewBox="0 0 48 48"
   version="1.1"
   id="svg1"
   inkscape:version="1.4.2 (ebf0e940, 2025-05-08)"
   sodipodi:docname="mxt-icon--hacktivism.svg"
   xmlns:inkscape="http://www.inkscape.org/namespaces/inkscape"
   xmlns:sodipodi="http://sodipodi.sourceforge.net/DTD/sodipodi-0.dtd"
   xmlns="http://www.w3.org/2000/svg"
   xmlns:svg="http://www.w3.org/2000/svg">
  <sodipodi:namedview
     id="namedview1"
     pagecolor="#ffffff"
     bordercolor="#000000"
     borderopacity="0.25"
     inkscape:showpageshadow="2"
     inkscape:pageopacity="0.0"
     inkscape:pagecheckerboard="0"
     inkscape:deskcolor="#d1d1d1"
     inkscape:document-units="mm"
     inkscape:zoom="1.4823793"
     inkscape:cx="94.442762"
     inkscape:cy="10.793459"
     inkscape:window-width="1728"
     inkscape:window-height="971"
     inkscape:window-x="0"
     inkscape:window-y="38"
     inkscape:window-maximized="1"
     inkscape:current-layer="layer1" />
  <defs
     id="defs1" />
  <g
     inkscape:label="Layer 1"
     inkscape:groupmode="layer"
     id="layer1">
    <path
       style="fill:#16b1f9;fill-opacity:1;stroke:#ffffff;stroke-width:1.48591;stroke-dasharray:none;stroke-opacity:1"
       id="path6-4-7"
       sodipodi:type="arc"
       sodipodi:cx="23.999611"
       sodipodi:cy="23.994209"
       sodipodi:rx="22.46302"
       sodipodi:ry="22.463377"
       sodipodi:start="0"
       sodipodi:end="6.2813513"
       sodipodi:open="true"
       sodipodi:arc-type="arc"
       d="M 46.462631,23.994209 A 22.46302,22.463377 0 0 1 24.00991,46.457584 22.46302,22.463377 0 0 1 1.5366,24.014808 22.46302,22.463377 0 0 1 23.968713,1.5308535 22.46302,22.463377 0 0 1 46.462593,23.953011"
       transform="matrix(1,0,-0.0056317,0.99998414,0,0)" />
    <path
       style="fill:#fbda3a;fill-opacity:1;stroke:none;stroke-width:0.899099;stroke-linecap:round;stroke-linejoin:round;stroke-dasharray:none;stroke-opacity:1"
       d="m 17.985297,37.915771 12.940205,0.0892 -0.892428,-9.81671 c 1.079323,-2.27245 2.59263,-3.09828 3.034255,-7.49639 l 0.535456,-5.53305 c -0.85704,-0.97354 -1.313424,-2.57668 -3.748197,-1.07092 l -0.356971,-1.51712 c -0.842209,-2.08618 -2.176945,-1.21718 -3.480469,-0.53546 l -0.356971,-1.2494 C 24.423434,8.9339905 22.932091,9.6280805 21.465766,10.071981 L 20.930309,9.0903105 c -0.958369,-0.58082 -1.88262,-1.31517 -3.301983,0.17848 l -0.08924,3.3019905 -1.070913,1.16015 c -1.111813,2.65311 -1.249526,4.81918 -1.874099,7.22867 l 4.372897,8.12109 z"
       id="path21"
       sodipodi:nodetypes="ccccccccccccccccc" />
    <path
       style="fill:none;fill-opacity:1;stroke:#16b1f9;stroke-width:0.528638;stroke-linecap:round;stroke-linejoin:round;stroke-dasharray:none;stroke-opacity:1"
       d="m 17.628326,12.660061 6.425481,0.98167 c 1.459866,1.75586 0.392916,2.66944 -0.178486,3.7482 l -3.83744,0.44622"
       id="path22"
       sodipodi:nodetypes="cccc" />
    <path
       style="fill:none;fill-opacity:1;stroke:#16b1f9;stroke-width:0.528638;stroke-linecap:round;stroke-linejoin:round;stroke-dasharray:none;stroke-opacity:1"
       d="m 21.555009,10.518241 v 2.32031"
       id="path23" />
    <path
       style="fill:none;fill-opacity:1;stroke:#16b1f9;stroke-width:0.528638;stroke-linecap:round;stroke-linejoin:round;stroke-dasharray:none;stroke-opacity:1"
       d="m 21.376523,18.282361 c 1.331289,2.453 2.89903,1.59568 4.46214,0.80318 l 0.267728,-6.87169"
       id="path24"
       sodipodi:nodetypes="ccc" />
    <path
       style="fill:none;fill-opacity:1;stroke:#16b1f9;stroke-width:0.528638;stroke-linecap:round;stroke-linejoin:round;stroke-dasharray:none;stroke-opacity:1"
       d="m 25.74942,19.442521 c 1.012612,0.64307 1.122647,2.38929 4.105168,0.62469 v -6.0685"
       id="path25"
       sodipodi:nodetypes="ccc" />
    <path
       style="fill:none;fill-opacity:1;stroke:#16b1f9;stroke-width:0.528638;stroke-linecap:round;stroke-linejoin:round;stroke-dasharray:none;stroke-opacity:1"
       d="m 29.765345,20.156461 c 0.830739,1.4686 1.818087,2.15415 3.123498,1.2494"
       id="path26"
       sodipodi:nodetypes="cc" />
    <path
       style="fill:none;fill-opacity:1;stroke:#16b1f9;stroke-width:0.528638;stroke-linecap:round;stroke-linejoin:round;stroke-dasharray:none;stroke-opacity:1"
       d="m 19.234696,32.471961 2.052584,0.0892 0.08924,-5.26532 -1.160156,-0.80319 -0.08924,-2.14183"
       id="path27" />
    <path
       style="fill:none;fill-opacity:1;stroke:#16b1f9;stroke-width:0.528638;stroke-linecap:round;stroke-linejoin:round;stroke-dasharray:none;stroke-opacity:1"
       d="m 19.413182,21.762831 2.320312,1.69561 0.267729,1.78486 0.892428,0.98167 v 8.29958"
       id="path28" />
    <path
       style="fill:none;fill-opacity:1;stroke:#16b1f9;stroke-width:0.528638;stroke-linecap:round;stroke-linejoin:round;stroke-dasharray:none;stroke-opacity:1"
       d="m 24.589264,23.993901 -0.08924,6.06851"
       id="path29" />
    <path
       style="fill:none;fill-opacity:1;stroke:#16b1f9;stroke-width:0.528638;stroke-linecap:round;stroke-linejoin:round;stroke-dasharray:none;stroke-opacity:1"
       d="m 28.426703,23.815411 -1.963341,1.51713 -0.08924,9.28125"
       id="path30" />
    <path
       style="fill:none;fill-opacity:1;stroke:#16b1f9;stroke-width:0.528638;stroke-linecap:round;stroke-linejoin:round;stroke-dasharray:none;stroke-opacity:1"
       d="m 29.943831,24.529351 -1.963341,1.78486 0.08924,5.89002 h 1.963341"
       id="path31" />
    <path
       style="fill:none;fill-opacity:1;stroke:#16b1f9;stroke-width:0.528638;stroke-linecap:round;stroke-linejoin:round;stroke-dasharray:none;stroke-opacity:1"
       id="path32"
       sodipodi:type="arc"
       sodipodi:cx="29.408379"
       sodipodi:cy="23.726158"
       sodipodi:rx="0.80318511"
       sodipodi:ry="0.80318511"
       sodipodi:start="0"
       sodipodi:end="6.2813513"
       sodipodi:open="true"
       sodipodi:arc-type="arc"
       d="m 30.211564,23.726158 a 0.80318511,0.80318511 0 0 1 -0.802817,0.803185 0.80318511,0.80318511 0 0 1 -0.803553,-0.802448 0.80318511,0.80318511 0 0 1 0.80208,-0.803921 0.80318511,0.80318511 0 0 1 0.804288,0.801711" />
    <path
       style="fill:none;fill-opacity:1;stroke:#16b1f9;stroke-width:0.528638;stroke-linecap:round;stroke-linejoin:round;stroke-dasharray:none;stroke-opacity:1"
       id="path32-6"
       sodipodi:type="arc"
       sodipodi:cx="24.689125"
       sodipodi:cy="23.244591"
       sodipodi:rx="0.80318511"
       sodipodi:ry="0.80318511"
       sodipodi:start="0"
       sodipodi:end="6.2813513"
       sodipodi:open="true"
       sodipodi:arc-type="arc"
       d="m 25.49231,23.244591 a 0.80318511,0.80318511 0 0 1 -0.802817,0.803185 0.80318511,0.80318511 0 0 1 -0.803553,-0.802449 0.80318511,0.80318511 0 0 1 0.80208,-0.803921 0.80318511,0.80318511 0 0 1 0.804289,0.801712" />
    <path
       style="fill:none;fill-opacity:1;stroke:#16b1f9;stroke-width:0.528638;stroke-linecap:round;stroke-linejoin:round;stroke-dasharray:none;stroke-opacity:1"
       id="path32-6-1"
       sodipodi:type="arc"
       sodipodi:cx="19.037346"
       sodipodi:cy="21.109062"
       sodipodi:rx="0.80318511"
       sodipodi:ry="0.80318511"
       sodipodi:start="0"
       sodipodi:end="6.2813513"
       sodipodi:open="true"
       sodipodi:arc-type="arc"
       d="m 19.840531,21.109062 a 0.80318511,0.80318511 0 0 1 -0.802817,0.803185 0.80318511,0.80318511 0 0 1 -0.803553,-0.802448 0.80318511,0.80318511 0 0 1 0.80208,-0.803921 0.80318511,0.80318511 0 0 1 0.804289,0.801711" />
    <path
       style="fill:none;fill-opacity:1;stroke:#16b1f9;stroke-width:0.528638;stroke-linecap:round;stroke-linejoin:round;stroke-dasharray:none;stroke-opacity:1"
       id="path32-6-1-3"
       sodipodi:type="arc"
       sodipodi:cx="24.579834"
       sodipodi:cy="30.992989"
       sodipodi:rx="0.80318511"
       sodipodi:ry="0.80318511"
       sodipodi:start="0"
       sodipodi:end="6.2813513"
       sodipodi:open="true"
       sodipodi:arc-type="arc"
       d="m 25.383019,30.992989 a 0.80318511,0.80318511 0 0 1 -0.802817,0.803185 0.80318511,0.80318511 0 0 1 -0.803553,-0.802449 0.80318511,0.80318511 0 0 1 0.80208,-0.803921 0.80318511,0.80318511 0 0 1 0.804289,0.801712" />
    <path
       style="fill:none;fill-opacity:1;stroke:#16b1f9;stroke-width:0.528638;stroke-linecap:round;stroke-linejoin:round;stroke-dasharray:none;stroke-opacity:1"
       id="path32-6-1-3-4"
       sodipodi:type="arc"
       sodipodi:cx="22.893654"
       sodipodi:cy="35.724037"
       sodipodi:rx="0.80318511"
       sodipodi:ry="0.80318511"
       sodipodi:start="0"
       sodipodi:end="6.2813513"
       sodipodi:open="true"
       sodipodi:arc-type="arc"
       d="m 23.696839,35.724037 a 0.80318511,0.80318511 0 0 1 -0.802817,0.803185 0.80318511,0.80318511 0 0 1 -0.803553,-0.802448 0.80318511,0.80318511 0 0 1 0.80208,-0.803921 0.80318511,0.80318511 0 0 1 0.804289,0.801711" />
    <path
       style="fill:none;fill-opacity:1;stroke:#16b1f9;stroke-width:0.528638;stroke-linecap:round;stroke-linejoin:round;stroke-dasharray:none;stroke-opacity:1"
       id="path32-6-1-3-4-1"
       sodipodi:type="arc"
       sodipodi:cx="26.527451"
       sodipodi:cy="35.689445"
       sodipodi:rx="0.80318511"
       sodipodi:ry="0.80318511"
       sodipodi:start="0"
       sodipodi:end="6.2813513"
       sodipodi:open="true"
       sodipodi:arc-type="arc"
       d="m 27.330636,35.689445 a 0.80318511,0.80318511 0 0 1 -0.802817,0.803186 0.80318511,0.80318511 0 0 1 -0.803553,-0.802449 0.80318511,0.80318511 0 0 1 0.80208,-0.803921 0.80318511,0.80318511 0 0 1 0.804288,0.801711" />
  </g>
</svg>
