<?xml version="1.0" encoding="UTF-8" standalone="no"?>
<!-- Created with Inkscape (http://www.inkscape.org/) -->

<svg
   width="48mm"
   height="48mm"
   viewBox="0 0 48 48"
   version="1.1"
   id="svg1"
   inkscape:version="1.4.2 (ebf0e940, 2025-05-08)"
   sodipodi:docname="mxt-icon--lifestyle.svg"
   xmlns:inkscape="http://www.inkscape.org/namespaces/inkscape"
   xmlns:sodipodi="http://sodipodi.sourceforge.net/DTD/sodipodi-0.dtd"
   xmlns="http://www.w3.org/2000/svg"
   xmlns:svg="http://www.w3.org/2000/svg">
  <sodipodi:namedview
     id="namedview1"
     pagecolor="#ffffff"
     bordercolor="#000000"
     borderopacity="0.25"
     inkscape:showpageshadow="2"
     inkscape:pageopacity="0.0"
     inkscape:pagecheckerboard="0"
     inkscape:deskcolor="#d1d1d1"
     inkscape:document-units="mm"
     inkscape:zoom="1.4823793"
     inkscape:cx="94.442762"
     inkscape:cy="10.793459"
     inkscape:window-width="1728"
     inkscape:window-height="971"
     inkscape:window-x="0"
     inkscape:window-y="38"
     inkscape:window-maximized="1"
     inkscape:current-layer="layer1" />
  <defs
     id="defs1" />
  <g
     inkscape:label="Layer 1"
     inkscape:groupmode="layer"
     id="layer1">
    <path
       style="fill:#6c369d;fill-opacity:1;stroke:#ffffff;stroke-width:1.48591;stroke-dasharray:none;stroke-opacity:1"
       id="path6-4-7-4"
       sodipodi:type="arc"
       sodipodi:cx="24.367504"
       sodipodi:cy="24.261917"
       sodipodi:rx="22.46302"
       sodipodi:ry="22.463377"
       sodipodi:start="0"
       sodipodi:end="6.2813513"
       sodipodi:open="true"
       sodipodi:arc-type="arc"
       d="M 46.830524,24.261917 A 22.46302,22.463377 0 0 1 24.377803,46.725292 22.46302,22.463377 0 0 1 1.9044932,24.282516 22.46302,22.463377 0 0 1 24.336606,1.7985614 22.46302,22.463377 0 0 1 46.830487,24.220719"
       transform="matrix(1,0,-0.0056317,0.99998414,0,0)" />
    <path
       style="fill:#fadc40;fill-opacity:1;stroke:none;stroke-width:0.528638;stroke-linecap:round;stroke-linejoin:round;stroke-dasharray:none;stroke-opacity:1"
       d="m 19.605167,35.704794 7.572502,0.0947 c 1.808647,-0.61086 3.153221,-2.38189 4.291084,-4.669715 7.449614,0.79524 9.236247,-9.98798 1.5145,-10.22287 -0.004,-0.63482 0.248653,-1.36585 -0.378625,-1.76692 l -18.42642,0.25241 v 5.04834 c -4.67e-4,5.51156 2.065992,9.113965 5.426959,11.264095 z"
       id="path33-8"
       sodipodi:nodetypes="cccccccc" />
    <path
       style="fill:#6c369d;fill-opacity:1;stroke:none;stroke-width:0.528638;stroke-linecap:round;stroke-linejoin:round;stroke-dasharray:none;stroke-opacity:1"
       d="m 32.857045,23.052409 -0.473281,5.90023 h 0.441729 c 4.569044,-1.04958 3.479658,-6.09436 0.03155,-5.90023 z"
       id="path34-3"
       sodipodi:nodetypes="cccc" />
    <path
       style="fill:none;fill-opacity:1;stroke:#fbda3a;stroke-width:1.32292;stroke-linecap:round;stroke-linejoin:round;stroke-dasharray:none;stroke-opacity:1"
       d="m 18.942573,11.125719 c -0.320868,0.95185 -0.71954,1.92964 -0.0631,2.55572 1.591358,1.04875 1.665615,2.30675 0.820354,3.69159"
       id="path35-0"
       sodipodi:nodetypes="ccc" />
    <path
       style="fill:none;fill-opacity:1;stroke:#fbda3a;stroke-width:1.32292;stroke-linecap:round;stroke-linejoin:round;stroke-dasharray:none;stroke-opacity:1"
       d="m 23.643835,9.2641387 c -0.478077,0.64747 -1.488138,1.1014803 -1.135876,2.0508903 0.0391,2.03822 0.872205,2.96482 1.735365,3.84935 0.760508,2.03683 -0.356741,2.07073 -0.725698,2.9028"
       id="path36-9"
       sodipodi:nodetypes="cccc" />
    <path
       style="fill:none;fill-opacity:1;stroke:#fbda3a;stroke-width:1.32292;stroke-linecap:round;stroke-linejoin:round;stroke-dasharray:none;stroke-opacity:1"
       d="m 27.209221,11.346579 -0.315521,2.05089 1.078184,1.93457 -0.100069,2.04099"
       id="path37-0"
       sodipodi:nodetypes="cccc" />
    <path
       style="fill:#16b1f9;fill-opacity:1;stroke:none;stroke-width:1.32292;stroke-linecap:round;stroke-linejoin:round;stroke-dasharray:none;stroke-opacity:1"
       d="m 23.956542,31.262229 c -1.502923,-1.18781 -3.003636,-2.377 -3.849355,-3.97556 -0.116872,-1.03787 -0.345821,-2.09069 0.75725,-2.9659 1.670751,-0.81934 2.481432,-0.0619 3.155209,0.94656 0.796408,-0.6579 1.285707,-1.93001 3.029001,-0.69414 1.388699,1.21887 0.577436,1.9201 0.694146,2.83968 -0.967157,1.87297 -2.418126,2.77832 -3.786251,3.84936 z"
       id="path38-1"
       sodipodi:nodetypes="ccccccc"
       inkscape:transform-center-x="-22.489183"
       inkscape:transform-center-y="-2.8557692" />
  </g>
</svg>
