<svg xmlns="http://www.w3.org/2000/svg" xmlns:svg="http://www.w3.org/2000/svg" id="svg1" width="48mm" height="48mm" version="1.1" viewBox="0 0 48 48"><g id="layer1"><path style="fill:#15b1f8;fill-opacity:1;stroke:#fff;stroke-width:1.48591;stroke-dasharray:none;stroke-opacity:1" id="path6" d="M 46.642685,24.066929 A 22.46302,22.463377 0 0 1 24.189964,46.530304 22.46302,22.463377 0 0 1 1.7166537,24.087528 22.46302,22.463377 0 0 1 24.148767,1.6035731 22.46302,22.463377 0 0 1 46.642647,24.025731" transform="matrix(1,0,-0.0056317,0.99998414,0,0)"/><g id="g11" transform="matrix(1.728,0,0,1.728,-250.20923,252.6966)"><path style="fill:#fed831;fill-opacity:1;stroke:none;stroke-width:.264583;stroke-dasharray:none;stroke-opacity:1" id="path2-4-9" d="m 151.04249,-128.67324 c 5.63731,-0.66254 11.27461,-1.67453 16.91192,-3.34452 0.76948,-0.40092 0.51855,-0.94761 0.12621,-1.5145 -1.67035,-1.05653 -3.16185,-1.5765 -4.66971,-2.14554 -3.82023,-5.51652 -9.13019,-2.44669 -9.90735,2.01933 -1.27201,1.13588 -2.50561,2.27175 -3.28142,3.40762 -0.36404,0.88003 -0.32249,1.53474 0.82035,1.57761 z"/><path style="fill:#f52d7a;fill-opacity:1;stroke:none;stroke-width:.249327;stroke-dasharray:none;stroke-opacity:1" id="path3-4-9" d="m 163.22924,-132.86967 a 0.89108688,0.92263895 0 0 1 -0.88756,0.92263 0.89108688,0.92263895 0 0 1 -0.89459,-0.91532 0.89108688,0.92263895 0 0 1 0.88047,-0.92989 0.89108688,0.92263895 0 0 1 0.90156,0.90795"/><path style="fill:#f52d7a;fill-opacity:1;stroke:none;stroke-width:.249327;stroke-dasharray:none;stroke-opacity:1" id="path3-0-5-3" d="m 159.8423,-132.1993 a 0.89108688,0.92263895 0 0 1 -0.88755,0.92264 0.89108688,0.92263895 0 0 1 -0.89459,-0.91532 0.89108688,0.92263895 0 0 1 0.88047,-0.92989 0.89108688,0.92263895 0 0 1 0.90156,0.90795"/><path style="fill:#f52d7a;fill-opacity:1;stroke:none;stroke-width:.249327;stroke-dasharray:none;stroke-opacity:1" id="path3-0-6-9-3" d="m 156.49794,-131.62518 a 0.89108688,0.92263895 0 0 1 -0.88755,0.92263 0.89108688,0.92263895 0 0 1 -0.89459,-0.91532 0.89108688,0.92263895 0 0 1 0.88046,-0.92989 0.89108688,0.92263895 0 0 1 0.90157,0.90795"/><path style="fill:#15b1f8;fill-opacity:1;stroke:none;stroke-width:.264583;stroke-dasharray:none;stroke-opacity:1" id="path4-7-7" d="m 154.63944,-134.03709 c 2.53691,-0.22754 5.12051,-0.59515 7.82492,-1.32519 -3.30653,-4.40449 -7.45514,-1.9769 -7.76182,1.19898 l -0.0631,0.0631"/><path style="fill:#f52d7a;fill-opacity:1;stroke:none;stroke-width:.264583;stroke-dasharray:none;stroke-opacity:1" id="path5-5-7" d="m 156.15393,-128.79945 c 0.31552,-0.0631 6.56284,-1.07277 6.56284,-1.07277 -1.18327,3.2141 -5.45979,3.17872 -6.62595,1.19898"/><circle id="path8-3" style="fill:#bad844;stroke:#bad846;stroke-width:.264583" cx="156.419" cy="-127.327" r=".008"/></g></g></svg>