<svg xmlns="http://www.w3.org/2000/svg" xmlns:svg="http://www.w3.org/2000/svg" id="svg1" width="48mm" height="48mm" version="1.1" viewBox="0 0 48 48"><g id="layer1"><path style="fill:#22ba90;fill-opacity:1;stroke:#fff;stroke-width:1.48591;stroke-dasharray:none;stroke-opacity:1" id="path6-4-9" d="M 46.647293,24.045288 A 22.46302,22.463377 0 0 1 24.194572,46.508663 22.46302,22.463377 0 0 1 1.7212619,24.065887 22.46302,22.463377 0 0 1 24.153375,1.5819323 22.46302,22.463377 0 0 1 46.647255,24.00409" transform="matrix(1,0,-0.0056317,0.99998414,0,0)"/><path style="fill:#fadc40;fill-opacity:1;stroke:none;stroke-width:1.0795;stroke-dasharray:none;stroke-opacity:1" id="path12-6-3" d="m 7.0083843,20.408522 17.1346167,6.53257 16.92043,-6.31838 -17.56298,-7.38931 z"/><path style="fill:#fadc40;fill-opacity:1;stroke:none;stroke-width:1.0795;stroke-dasharray:none;stroke-opacity:1" id="path13-8-1" d="m 14.183501,24.692172 0.10704,5.67585 c 7.07305,3.80898 13.30901,3.43254 18.95517,0.10704 l 0.21412,-5.46166 -9.6382,3.42692 z"/><path style="fill:#f62e77;fill-opacity:1;stroke:#f62d77;stroke-width:1.08;stroke-dasharray:none;stroke-opacity:1" id="path14-6-0" d="m 35.820911,32.798962 3.029,-0.0757 -0.98443,-3.78624 0.0379,-1.43877 0.0757,-5.33862 -1.02228,0.41649 v 4.95999 l -0.0379,1.62809 z"/></g></svg>