<svg xmlns="http://www.w3.org/2000/svg" xml:space="preserve" width="100" height="100" viewBox="0 0 26.458 26.458"><ellipse cx="13.564" cy="22.44" rx="7.146" ry="1.936" style="fill:#fadc40;fill-opacity:1;stroke:#000;stroke-width:.703044;stroke-linecap:round;stroke-linejoin:round;stroke-dasharray:none;stroke-opacity:1"/><path fill="none" stroke="#fff" stroke-linecap="round" stroke-linejoin="round" stroke-width="1.829" d="M20.094 9.273c-.52-4.174-3.1-5.65-6.563-6.12-3.663.388-6.059 2.256-6.609 6.388-.021 1.935.897 3.176 1.657 4.534l4.91 8.155 5.723-9.201c.462-1.107 1.075-2.085.882-3.755z" style="fill:#fa892d;fill-opacity:1;stroke:#000;stroke-width:.703044;stroke-dasharray:none;stroke-opacity:1"/><path d="M9.787 10.24c1.52 1.16 2.706 2.487 3.872 3.824.633-1.249 1.818-2.423 3.442-3.537.318-1.115.881-2.23-.048-3.346-1.57-1.425-2.92-.394-3.49.478-1.099-.83-1.787-1.973-3.298-.478-1.328.99-.91 2.025-.478 3.06Z" style="fill:#fadc40;fill-opacity:1;stroke:#000;stroke-width:.703044;stroke-linecap:round;stroke-linejoin:round;stroke-dasharray:none;stroke-opacity:1"/></svg>