<svg xmlns="http://www.w3.org/2000/svg" xml:space="preserve" width="100" height="100" viewBox="0 0 26.458 26.458"><ellipse cx="12.426" cy="4.922" rx="1.587" ry="1.64" style="fill:#1aabf9;stroke:#fff;stroke-width:1.05832;stroke-linecap:round;stroke-linejoin:round;stroke-dasharray:none;stroke-opacity:1;fill-opacity:1"/><path d="M20.406 23.088c.887.828 1.482.524 1.879-.55l-1.708-6.657c-.13-.256.059-.583-.816-.674l-4.365-.042-1.132-6.753-4.12-.897-3.557 3.32 1.25 5.543c.646.527 1.322 1.344 1.737-.402L8.52 11.23l1.595-1.045.607 5.84c.395 1.034 1.052 1.372 1.888 1.235l6.198-.18z" style="fill:#1aabf9;stroke:#fff;stroke-width:1.05832;stroke-linecap:round;stroke-linejoin:round;stroke-dasharray:none;stroke-opacity:1;fill-opacity:1"/><ellipse cx="11.753" cy="19.752" rx="5.584" ry="5.124" style="fill:#f3bc1d;fill-opacity:1;stroke:#fff;stroke-width:1.05832;stroke-linecap:round;stroke-linejoin:round;stroke-dasharray:none;stroke-opacity:1"/><path d="m10.077 7.449-3.557 3.32 1.25 5.543c.646.527 1.322 1.344 1.737-.402l-1.054-4.746 1.595-1.045-.029-2.428c.395 1.034.058-.242.058-.242z" style="fill:#1aabf9;stroke:#fff;stroke-width:1.05832;stroke-linecap:round;stroke-linejoin:round;stroke-dasharray:none;stroke-opacity:1;fill-opacity:1"/><ellipse cx="11.744" cy="19.787" rx="3.322" ry="3.007" style="fill:#fff;fill-opacity:1;stroke:#ff;stroke-width:1.05832;stroke-linecap:round;stroke-linejoin:round;stroke-dasharray:none;stroke-opacity:1"/><path d="m9.333 9.842 1.543-.016.08-1.606-.764-.047-.922.747z" style="fill:#1aabf9;fill-opacity:1;stroke-width:1.75798;stroke-linecap:round;stroke-linejoin:round"/></svg>