<svg xmlns="http://www.w3.org/2000/svg" width="100" height="100" viewBox="0 0 26.458 26.458"><path d="M10.077 19.384a1.63 2.247 0 0 1-1.63 2.247 1.63 2.247 0 0 1-1.631-2.245 1.63 2.247 0 0 1 1.628-2.248 1.63 2.247 0 0 1 1.633 2.242" style="fill:#000;fill-opacity:1;stroke:#000;stroke-width:.711751;stroke-linecap:round;stroke-linejoin:round;stroke-dasharray:none;stroke-opacity:1"/><path d="M15.486 19.33a1.895 2.331 0 0 1-1.893 2.33 1.895 2.331 0 0 1-1.896-2.329 1.895 2.331 0 0 1 1.893-2.333 1.895 2.331 0 0 1 1.896 2.328l-1.894.004z" style="fill:#000;fill-opacity:1;stroke:#000;stroke-width:.578061;stroke-linecap:round;stroke-linejoin:round;stroke-dasharray:none;stroke-opacity:1"/><path d="m12.775 21.508-.154.762c-1.048.102-1.62.598-2.187 1.097-.376.62-.398 1.382-.37 2.163l6.932.092c-.017-.67.087-1.299-.154-2.042-.514-.588-1.164-1.117-2.249-1.462l-.246-.67" style="fill:#000;fill-opacity:1;stroke:#000;stroke-width:.578061;stroke-linecap:round;stroke-linejoin:round;stroke-dasharray:none;stroke-opacity:1"/><path d="M8.706 25.586c-1.149-.114-2.298.073-3.446-.499-.011-.663-.093-1.312.37-2.074.514-.56 1.041-1.108 2.038-1.267l.037-.422h1.371l.26.499.704.499c-1.018 1.147-1.562 2.143-1.297 2.88" style="fill:#000;fill-opacity:1;stroke:#000;stroke-width:.711751;stroke-linecap:round;stroke-linejoin:round;stroke-dasharray:none;stroke-opacity:1"/><path d="M-16.903 19.451a1.63 2.247 0 0 1-1.63 2.247 1.63 2.247 0 0 1-1.631-2.245 1.63 2.247 0 0 1 1.628-2.248 1.63 2.247 0 0 1 1.633 2.242" style="fill:#000;fill-opacity:1;stroke:#000;stroke-width:.711751;stroke-linecap:round;stroke-linejoin:round;stroke-dasharray:none;stroke-opacity:1" transform="scale(-1 1)"/><path d="M18.274 25.653c1.15-.113 2.298.074 3.447-.499.01-.663.092-1.312-.37-2.074-.515-.56-1.042-1.108-2.039-1.267l-.037-.422h-1.371l-.26.499-.704.5c1.018 1.146 1.563 2.142 1.297 2.88" style="fill:#000;fill-opacity:1;stroke:#000;stroke-width:.711751;stroke-linecap:round;stroke-linejoin:round;stroke-dasharray:none;stroke-opacity:1"/><path d="m7.725 20.94.221.3.09.367.029.092.74-.053.147-.458.237-.327-.606-.328" style="fill:#000;fill-opacity:1;stroke:none;stroke-width:.73691;stroke-linecap:round;stroke-linejoin:round;stroke-dasharray:none;stroke-opacity:1"/><path d="M5.406 18.683a1.63 2.247 0 0 1-1.63 2.247 1.63 2.247 0 0 1-1.63-2.245 1.63 2.247 0 0 1 1.628-2.248 1.63 2.247 0 0 1 1.632 2.242" style="fill:#000;fill-opacity:1;stroke:#000;stroke-width:.711751;stroke-linecap:round;stroke-linejoin:round;stroke-dasharray:none;stroke-opacity:1"/><path d="M4.035 24.885c-1.149-.113-2.297.074-3.446-.499-.011-.663-.093-1.312.37-2.074.514-.56 1.041-1.108 2.039-1.267l.037-.422h1.37l.26.499.704.5c-1.017 1.146-1.562 2.142-1.297 2.88" style="fill:#000;fill-opacity:1;stroke:#000;stroke-width:.711751;stroke-linecap:round;stroke-linejoin:round;stroke-dasharray:none;stroke-opacity:1"/><path d="m3.054 20.238.222.301.089.367.03.092.739-.053.148-.458.236-.327-.606-.328" style="fill:#000;fill-opacity:1;stroke:none;stroke-width:.73691;stroke-linecap:round;stroke-linejoin:round;stroke-dasharray:none;stroke-opacity:1"/><path d="m13.847 18.698 1.279.353.024.571-1.094 1.704-.037.374-.935-.135-.012-1.662.012-1.07" style="fill:#000;fill-opacity:1;stroke:none;stroke-width:.598497;stroke-linecap:round;stroke-linejoin:round;stroke-dasharray:none;stroke-opacity:1"/><path d="m17.739 20.821.295.498.133.419.696-.013.28-.603.252-.314z" style="fill:#000;fill-opacity:1;stroke:none;stroke-width:.73691;stroke-linecap:round;stroke-linejoin:round;stroke-dasharray:none;stroke-opacity:1"/><path d="M-21.51 18.612a1.63 2.247 0 0 1-1.63 2.247 1.63 2.247 0 0 1-1.63-2.245 1.63 2.247 0 0 1 1.628-2.248 1.63 2.247 0 0 1 1.632 2.242" style="fill:#000;fill-opacity:1;stroke:#000;stroke-width:.711751;stroke-linecap:round;stroke-linejoin:round;stroke-dasharray:none;stroke-opacity:1" transform="scale(-1 1)"/><path d="M22.88 24.814c1.15-.114 2.298.073 3.447-.499.01-.663.093-1.312-.37-2.074-.515-.56-1.042-1.108-2.039-1.267l-.037-.423h-1.37l-.26.5-.704.499c1.017 1.147 1.562 2.143 1.297 2.88" style="fill:#000;fill-opacity:1;stroke:#000;stroke-width:.711751;stroke-linecap:round;stroke-linejoin:round;stroke-dasharray:none;stroke-opacity:1"/><path d="m22.345 19.982.296.498.133.419.695-.013.28-.603.252-.314z" style="fill:#000;fill-opacity:1;stroke:none;stroke-width:.73691;stroke-linecap:round;stroke-linejoin:round;stroke-dasharray:none;stroke-opacity:1"/><path d="M14.238 4.466a2.913 3.973 0 0 1-2.911 3.974 2.913 3.973 0 0 1-2.914-3.969A2.913 3.973 0 0 1 11.322.494a2.913 3.973 0 0 1 2.916 3.966" style="fill:#6c369d;fill-opacity:1;stroke:#000;stroke-width:.78116;stroke-linecap:round;stroke-linejoin:round;stroke-dasharray:none;stroke-opacity:1"/><path d="M11.789 15.436c-2.052-.201-4.104.13-6.156-.883-.02-1.173-.166-2.32.662-3.667.918-.99 1.859-1.96 3.64-2.241l.067-.748h2.449l.463.883.674.299c-1.818 2.028-2.207 4.373-1.732 5.678" style="fill:#6c369d;fill-opacity:1;stroke:#000;stroke-width:.78116;stroke-linecap:round;stroke-linejoin:round;stroke-dasharray:none;stroke-opacity:1"/><g stroke-linecap="round" stroke-linejoin="round" style="fill:none;stroke:#000;stroke-width:1.75799;stroke-dasharray:none;stroke-opacity:1"><path d="M10.287 4.802c3.202-5.352 6.556-.483 6.47 0l-.091 10.097c-1.226 2.52-4.489 3.996-6.42.094z" style="fill:#fadc40;fill-opacity:1;stroke:#000;stroke-width:1.75799;stroke-dasharray:none;stroke-opacity:1" transform="matrix(.4783 0 0 .4783 10.958 4.801)"/><path d="m6.374 10.947-.101 4.2c1.23 3.72 3.246 4.54 5.316 5.157l-.057-.014 3.839-.007c2.128-.853 4.207-1.808 5.04-5.308l.125-3.848-.014.766m-7.187 8.676.038 3.039m-4.903.123 9.491-.06" style="stroke:#000;stroke-width:1.75799;stroke-dasharray:none;stroke-opacity:1" transform="matrix(.4783 0 0 .4783 10.958 4.801)"/></g><g style="fill:none;stroke:#000;stroke-width:1.0583;stroke-opacity:1"><path d="m10.456 5.782 2.066.02m-2.041 2.189 1.847-.038m-1.674 1.873 1.847-.038" style="stroke:#000;stroke-opacity:1" transform="matrix(.4783 0 0 .4783 10.958 4.801)"/></g><path d="m9.815 7.126.567 1.142.166.38 1.503-.189c.42-.46.603-.926.788-1.37z" style="fill:#6c369d;stroke:none;stroke-width:.78116;stroke-linecap:round;stroke-linejoin:round;stroke-dasharray:none;stroke-opacity:1"/></svg>