<svg xmlns="http://www.w3.org/2000/svg" xml:space="preserve" width="100" height="100" viewBox="0 0 26.458 26.458"><path d="M11.513 4.407c3.29-.488 4.781-1.376 5.936-2.338 1.64 1.204 3.524 1.437 5.397 1.709.662 5.97-1.022 9.709-5.397 10.883-2.959-1.98-6.431-3.207-5.936-10.254z" style="fill:none;fill-opacity:1;stroke:#000;stroke-width:.79374;stroke-linecap:round;stroke-linejoin:round;stroke-dasharray:none;stroke-opacity:1"/><path d="m15.02 7.735 1.53 1.89 3.868-2.88" style="fill:none;fill-opacity:1;stroke:#22bb90;stroke-width:1.56102197;stroke-linecap:round;stroke-linejoin:round;stroke-dasharray:none;stroke-opacity:1"/><path d="m2.159 17.99 2.878-1.62 3.778 6.386-2.969 1.62z" style="fill:#6c369d;fill-opacity:1;stroke:#000;stroke-width:.79374;stroke-linecap:round;stroke-linejoin:round;stroke-dasharray:none;stroke-opacity:1"/><path d="m16.64 17.9 5.846-2.07c1.47.501 1.343 1.459 1.17 2.429l-8.275 4.227c-.811.028-1.365.569-2.609-.27l-3.148-1.169-1.529.36-2.428-4.137 3.328-1.89" style="fill:#f42d76;fill-opacity:1;stroke:#000;stroke-width:.79374;stroke-linecap:round;stroke-linejoin:round;stroke-dasharray:none;stroke-opacity:1"/><path d="m6.377 16.63 3.508-1.798c.827-.533 1.38-.244 1.979-.09l5.576 1.889c.686 1.463.15 2.163-1.08 2.428L12.674 17.8v0" style="fill:#f42d76;fill-opacity:1;stroke:#000;stroke-width:.79374;stroke-linecap:round;stroke-linejoin:round;stroke-dasharray:none;stroke-opacity:1"/></svg>