<svg xmlns="http://www.w3.org/2000/svg" xml:space="preserve" width="100" height="100" viewBox="0 0 26.458 26.458"><path d="M9.666 9.06c-.404.026 1.739-.144 1.646.279l-.03 10.039 4.582.061c.579-.108 1.244-.417 1.013-1.48l7.898-2.024c.307-.004.471-.268.56-.671l-.587-2.421c-1.374.023-1.848-.694-2.135-1.564-.22-1.327.496-1.904 1.33-2.387l-.528-2.36c-.069-.297-.554-.605-.915-.631Z" style="fill:#fadc40;stroke:#fff;stroke-width:1.01647;stroke-linecap:butt;stroke-linejoin:miter;stroke-dasharray:none;stroke-opacity:1;fill-opacity:1"/>
    <path d="m11.26 9.344-.043 9.974"
          style="fill:none;stroke:#fff;stroke-width:1.01647;stroke-linecap:butt;stroke-linejoin:miter;stroke-dasharray:none;stroke-opacity:1"/>
    <path d="M2.396 8.912c-.399-.07-.629.22-.81.61l-.04 2.495c1.208.318 1.642 1.015 1.845 2.15-.383 1.227-.961 1.96-1.831 2.1l-.013 2.236c.17.35.258.766.763.847l13.893-.125c.3.069.518-.15.692-.523l-.043-2.495c-1.344-.298-1.65-1.107-1.74-2.023.075-1.344.899-1.738 1.816-2.013V9.748c-.002-.306-.408-.719-.753-.83Z"
          style="fill:#22bb90;fill-opacity:1;stroke:#fff;stroke-width:1.01647;stroke-linecap:butt;stroke-linejoin:miter;stroke-dasharray:none;stroke-opacity:1"/>
    <path d="M9.227 17.638c-1.503-1.187-3.004-2.377-3.85-3.975-.117-1.038-.345-2.09.758-2.966 1.67-.82 2.481-.062 3.155.947.796-.658 1.285-1.93 3.029-.695 1.388 1.22.577 1.92.694 2.84-.967 1.873-2.418 2.778-3.786 3.85z"
          style="fill:#fadc40;fill-opacity:1;stroke:none;stroke-width:1.3229;stroke-linecap:round;stroke-linejoin:round;stroke-dasharray:none;stroke-opacity:1"/></svg>