<?xml version="1.0" encoding="UTF-8" standalone="no"?>
<svg
   width="189.4"
   height="46.15"
   viewBox="0 0 189.4 46.15"
   version="1.1"
   id="svg7"
   sodipodi:docname="mxt-icon--logo--light.svg"
   inkscape:version="1.4.2 (ebf0e940, 2025-05-08)"
   xmlns:inkscape="http://www.inkscape.org/namespaces/inkscape"
   xmlns:sodipodi="http://sodipodi.sourceforge.net/DTD/sodipodi-0.dtd"
   xmlns="http://www.w3.org/2000/svg"
   xmlns:svg="http://www.w3.org/2000/svg"
   xmlns:rdf="http://www.w3.org/1999/02/22-rdf-syntax-ns#"
   xmlns:cc="http://creativecommons.org/ns#"
   xmlns:dc="http://purl.org/dc/elements/1.1/">
  <defs
     id="defs7" />
  <sodipodi:namedview
     id="namedview7"
     pagecolor="#ffffff"
     bordercolor="#000000"
     borderopacity="0.25"
     inkscape:showpageshadow="2"
     inkscape:pageopacity="0.0"
     inkscape:pagecheckerboard="0"
     inkscape:deskcolor="#d1d1d1"
     inkscape:zoom="5.8922914"
     inkscape:cx="94.7"
     inkscape:cy="22.996147"
     inkscape:window-width="1728"
     inkscape:window-height="964"
     inkscape:window-x="0"
     inkscape:window-y="38"
     inkscape:window-maximized="1"
     inkscape:current-layer="svg7" />
  <title
     id="title1">mxt-icon--logo</title>
  <polygon
     points="104.14,29.77 108.19,24.05 108.18,24.04 "
     style="fill:none"
     id="polygon1" />
  <line
     x1="100.67"
     x2="100.66"
     y1="34.700001"
     y2="34.720001"
     style="fill:none;stroke:#aecbd6;stroke-width:0;stroke-linecap:round;stroke-linejoin:round"
     id="line1" />
  <polygon
     points="102.55,35.48 109.58,24.98 123.79,46.08 109.69,46.08 "
     style="fill:#ffffff;fill-opacity:1"
     id="polygon2" />
  <polygon
     points="103.45,9.58 110.53,19.26 124.52,0.11 110.43,0.11 "
     style="fill:#ffffff;fill-opacity:1"
     id="polygon3" />
  <polygon
     points="108.42,22.18 92.27,0.18 78.17,0.18 94.27,22.18 78.12,46.15 92.21,46.15 "
     style="fill:#ffffff"
     id="polygon4" />
  <path
     d="M 24.28,17.09 43,0 h 5.5 V 46.1 H 36.33 V 22.44 l -12,11 L 12.17,22.5 V 46.1 H 0 V 0 h 5.47 z"
     style="fill:#ffffff"
     id="path4" />
  <path
     d="M 57.39,0 H 69.5 V 46.1 H 57.39 Z"
     style="fill:#ffffff"
     id="path5" />
  <path
     d="m 133.53,0 h 12.11 v 46.1 h -12.11 z"
     style="fill:#ffffff;fill-opacity:1"
     id="path6" />
  <path
     d="m 153.12,0 h 36.28 v 12 h -12.21 v 34.1 h -12.1 V 12 h -12 z"
     style="fill:#ffffff;fill-opacity:1"
     id="path7" />
  <metadata
     id="metadata7">
    <rdf:RDF>
      <cc:Work
         rdf:about="">
        <dc:title>mxt-icon--logo</dc:title>
      </cc:Work>
    </rdf:RDF>
  </metadata>
</svg>
