<svg xmlns="http://www.w3.org/2000/svg" width="100" height="100" viewBox="0 0 26.458 26.458"><path d="m14.946 7.06-1.208 1.59-.127 5.215.127 7.378 2.671 1.717 5.025.509 3.625-.127-.827-2.608.254-2.163-5.533-.954-1.463-1.844-1.526-8.522z" style="fill:#1aabf9;stroke-width:1.75798;stroke-linecap:round;stroke-linejoin:round"/><path d="m1.717 23.087-.954-2.353 1.463-1.908 4.452-.636L8.65 16.98l.827-2.989 1.59-6.932 1.399.7.572 1.526.127 7.95-.19 4.134s-1.59 1.272-1.845 1.272c-.254 0-5.342.7-5.342.7z" style="fill:#f52d7a;stroke-width:1.75798;stroke-linecap:round;stroke-linejoin:round;fill-opacity:1"/><g fill="none" stroke="#fff" stroke-linecap="round" stroke-width="2.663"><path stroke-linejoin="round" d="m-11.525-37.138 10.072-.485 3.59-1.343c2.126-1.074 3.422-2.686 3.404-5.148l3.587-20.871c3.266-.788 5.282 1.353 6.466 5.445l-.45 26.663c-.01 2.185-.03 4.37-5.006 6.47L-.213-24.702l-12.977.219m56.338-12.754-10.072-.485-3.59-1.343c-2.126-1.074-3.422-2.686-3.404-5.148l-3.587-20.871c-3.266-.788-5.282 1.353-6.466 5.445l.45 26.663c.01 2.185.03 4.37 5.006 6.47l10.351 1.705 12.977.219" transform="matrix(.39399 0 0 .40097 7.367 33.143)"/><path d="m-2.656-71.073 5.461 5.02m3.427-8.498 2.005 3.803m7.709-6.53.03 7.5m9.941-4.539-1.742 2.86m10.492.608-4.974 4.525M8.124-34.431l2.76-12.828.995-3.454c.754-1.433 1.447-3.154 3.18.003m8.658 16.036-2.76-12.828-.994-3.453c-.755-1.434-1.448-3.155-3.181.002" transform="matrix(.39399 0 0 .40097 7.367 33.143)"/></g></svg>