<svg xmlns="http://www.w3.org/2000/svg" xml:space="preserve" width="100" height="100" viewBox="0 0 26.458 26.458"><path d="m14.526 12.997 2.384 1.304 4.992-2.338L24.42 8.14l1.035-3.193-4.633-.675-3.912.81-2.024 2.428-.63 4.947ZM13.087 15.92l-1.44-4.407L7.736 9.04H1.934l.674 2.563 2.07 4.767 3.057 2.204 2.968.72 1.53-.27z" style="fill:#22ba90;stroke-width:1.75798;stroke-linecap:round;stroke-linejoin:round"/><g style="stroke-width:1.56825;stroke-dasharray:none"><path d="M34.511 11.832c3.621 13.521 9.277 14.714 15.324 13.54" style="fill:none;stroke:#fff;stroke-width:1.56825;stroke-linecap:round;stroke-linejoin:round;stroke-dasharray:none;stroke-opacity:1" transform="matrix(.66645 0 0 .68334 -20.92 1.53)"/><path d="M38.856 14.566c9.379 2.677 13.741 8.592 13.889 17.227" style="fill:none;stroke:#fff;stroke-width:1.56825;stroke-linecap:round;stroke-linejoin:round;stroke-dasharray:none;stroke-opacity:1" transform="matrix(.66645 0 0 .68334 -20.92 1.53)"/><path d="M34.18 10.983c8.67-.876 15.746.707 17.359 10.72m1.576-5.059C52.495 7.008 57.018 2.03 69.847 4.57c-2.219 11.803-7.758 12.126-12.88 13.894" style="fill:none;stroke:#fff;stroke-width:1.56825;stroke-linecap:round;stroke-linejoin:round;stroke-dasharray:none;stroke-opacity:1" transform="matrix(.66645 0 0 .68334 -20.92 1.53)"/><path d="M66.573 6.962c-5.275 4.762-11.688 5.763-13.963 20.437" style="fill:none;stroke:#fff;stroke-width:1.56825;stroke-linecap:round;stroke-linejoin:round;stroke-dasharray:none;stroke-opacity:1" transform="matrix(.66645 0 0 .68334 -20.92 1.53)"/></g></svg>