<?xml version="1.0" encoding="UTF-8" standalone="no"?>
<svg
   width="100"
   height="50.192"
   version="1.1"
   viewBox="0 0 100 50.192"
   id="svg11"
   sodipodi:docname="mxt-icon--edition-14.svg"
   xml:space="preserve"
   inkscape:version="1.4.2 (ebf0e940, 2025-05-08)"
   xmlns:inkscape="http://www.inkscape.org/namespaces/inkscape"
   xmlns:sodipodi="http://sodipodi.sourceforge.net/DTD/sodipodi-0.dtd"
   xmlns="http://www.w3.org/2000/svg"
   xmlns:svg="http://www.w3.org/2000/svg"><defs
     id="defs11" /><sodipodi:namedview
     id="namedview11"
     pagecolor="#ffffff"
     bordercolor="#000000"
     borderopacity="0.25"
     inkscape:showpageshadow="2"
     inkscape:pageopacity="0.0"
     inkscape:pagecheckerboard="0"
     inkscape:deskcolor="#d1d1d1"
     inkscape:zoom="4.1440866"
     inkscape:cx="56.10404"
     inkscape:cy="35.11027"
     inkscape:window-width="1728"
     inkscape:window-height="962"
     inkscape:window-x="0"
     inkscape:window-y="38"
     inkscape:window-maximized="0"
     inkscape:current-layer="svg11" /><g
     stroke-width="1.034"
     id="g3"
     transform="translate(-1.9595,-0.1832)"
     style="fill:#dcb9b9;fill-opacity:0.2"><path
       d="m 10.295,41.125 h 8.295 v 8.956 H 10.295 Z M 2,32.169 h 8.295 v 8.956 H 2 Z m 8.295,0 h 8.295 v 8.956 h -8.295 z m 8.296,0 h 8.295 v 8.956 h -8.295 z"
       id="path1" /><path
       d="m 26.886,32.169 h 8.295 v 8.956 h -8.295 z m 8.295,0 h 8.295 v 8.956 h -8.295 z m -8.295,8.956 h 8.295 v 8.956 h -8.295 z m 0,-17.912 h 8.295 v 8.956 h -8.295 z m 0,-8.956 h 8.295 v 8.956 h -8.295 z m 8.295,0 h 8.295 v 8.956 h -8.295 z"
       id="path2" /><path
       d="m 18.591,14.257 h 8.295 v 8.956 h -8.295 z m -8.296,0 h 8.295 v 8.956 h -8.295 z m -8.295,0 h 8.295 v 8.956 H 2 Z m 8.295,8.956 h 8.295 v 8.956 h -8.295 z m 0,-17.912 h 8.295 v 8.956 h -8.295 z m 16.591,0 h 8.295 v 8.956 h -8.295 z"
       id="path3" /></g><path
     d="m 48.1315,0.4247 h 9.29 v 49.701 h -9.29 z"
     stroke-width="2.578"
     id="path4"
     style="fill:#dcb9b9;fill-opacity:0.2" /><path
     d="m 90.576539,0.38453795 h 9.29 V 50.085538 h -9.29 z"
     stroke-width="2.578"
     id="path4-7"
     style="fill:#dcb9b9;fill-opacity:0.2" /><rect
     x="62.22662"
     y="55.157963"
     width="9.5088997"
     height="10.037"
     id="rect4"
     style="fill:#dcb9b9;fill-opacity:0.2" /><rect
     x="66.509491"
     y="10.042321"
     width="9.5088997"
     height="10.037"
     id="rect4-7"
     style="fill:#dcb9b9;fill-opacity:0.2" /><rect
     x="63.11438"
     y="0.048501521"
     width="9.5088997"
     height="10.037"
     id="rect4-7-4"
     style="fill:#dcb9b9;fill-opacity:0.2" /><rect
     x="61.888615"
     y="85.456764"
     width="9.5088997"
     height="10.037"
     id="rect5"
     style="fill:#dcb9b9;fill-opacity:0.2" /><rect
     x="89.457611"
     y="60.622765"
     width="9.5088997"
     height="10.037"
     id="rect6"
     style="fill:#dcb9b9;fill-opacity:0.2" /><rect
     x="89.671616"
     y="80.668762"
     width="9.5088997"
     height="10.037"
     id="rect7"
     style="fill:#dcb9b9;fill-opacity:0.2" /><rect
     x="71.683609"
     y="50.657661"
     width="18.643"
     height="10.037"
     id="rect8"
     style="fill:#dcb9b9;fill-opacity:0.2" /><rect
     x="71.286613"
     y="90.736763"
     width="18.643"
     height="10.037"
     id="rect9"
     style="fill:#dcb9b9;fill-opacity:0.2" /><rect
     x="71.732613"
     y="70.546761"
     width="18.643"
     height="10.037"
     id="rect10"
     style="fill:#dcb9b9;fill-opacity:0.2" /><rect
     x="72.087593"
     y="20.125561"
     width="18.643"
     height="10.037"
     id="rect10-8"
     style="fill:#dcb9b9;fill-opacity:0.2" /></svg>
