<svg xmlns="http://www.w3.org/2000/svg" xmlns:svg="http://www.w3.org/2000/svg" id="svg1" width="75" height="75" version="1.1" viewBox="0 0 19.844 19.844"><g id="layer1"><path id="rect727-5-2-9-1-1-2-8" style="fill:#fff;stroke:#000;stroke-width:1.00542;stroke-linecap:round;stroke-linejoin:round" d="M 3.7400565,3.8071291 H 15.936505 c 0.795645,0 1.436182,0.6405371 1.436182,1.4361818 V 16.361988 c 0,0.795644 -0.640537,1.436181 -1.436182,1.436181 H 3.7400565 c -0.7956447,0 -1.4361818,-0.640537 -1.4361818,-1.436181 V 5.2433109 c 0,-0.7956447 0.6405371,-1.4361818 1.4361818,-1.4361818 z"/><path style="fill:#1f9cdf;fill-opacity:1;stroke:#000;stroke-width:1.00542;stroke-linecap:round;stroke-linejoin:round;stroke-dasharray:none;stroke-opacity:1" id="path7" d="M 2.3399762,4.6799522 2.3204389,7.277031 17.402386,7.2575782 17.38268,5.1912077 C 17.455167,3.9116681 16.702942,3.4134348 15.789923,3.0675316 L 4.2077037,3.0781016 C 3.5851279,3.1123509 2.962552,3.2989991 2.3399762,4.6799522 Z"/><path id="rect2148-1-7-8-7-3-6-0" style="fill:#f9d642;stroke:#000;stroke-width:.723635;stroke-linecap:round;stroke-linejoin:round" d="m 5.7861682,0.92800409 c 0.3740994,0 0.6752697,0.26452281 0.6752697,0.59310051 v 2.6091018 c 0,0.3285777 -0.3011703,0.5931006 -0.6752697,0.5931006 -0.3740994,0 -0.6752697,-0.2645229 -0.6752697,-0.5931006 V 1.5211046 c 0,-0.3285777 0.3011703,-0.59310051 0.6752697,-0.59310051 z"/><path id="rect2148-6-2-9-7-7-3-0-2" style="fill:#f9d642;stroke:#000;stroke-width:.723635;stroke-linecap:round;stroke-linejoin:round" d="m 13.866185,0.92617303 c 0.374099,0 0.67527,0.26452287 0.67527,0.59310057 v 2.6091018 c 0,0.3285777 -0.301171,0.5931005 -0.67527,0.5931005 -0.3741,0 -0.67527,-0.2645228 -0.67527,-0.5931005 V 1.5192736 c 0,-0.3285777 0.30117,-0.59310057 0.67527,-0.59310057 z"/><text xml:space="preserve" style="font-size:6.35px;line-height:1;font-family:Arial;-inkscape-font-specification:Arial;text-align:center;writing-mode:lr-tb;direction:ltr;text-anchor:middle;fill:#000;fill-opacity:1;stroke:#000;stroke-width:.468;stroke-linecap:round;stroke-linejoin:round;stroke-dasharray:none;stroke-opacity:1" id="text5-6" x="9.66" y="13.047"><tspan id="tspan5-8" style="font-style:normal;font-variant:normal;font-weight:400;font-stretch:normal;font-size:6.35px;font-family:Arial;-inkscape-font-specification:Arial;fill:#000;fill-opacity:1;stroke:#000;stroke-width:.468;stroke-dasharray:none;stroke-opacity:1" x="9.66" y="13.047">4</tspan></text><text xml:space="preserve" style="font-size:3.175px;line-height:1.3;font-family:Arial;-inkscape-font-specification:Arial;text-align:center;writing-mode:lr-tb;direction:ltr;text-anchor:middle;fill:#000;fill-opacity:1;stroke:#000;stroke-width:.28575;stroke-linecap:round;stroke-linejoin:round;stroke-dasharray:none;stroke-opacity:1" id="text7-2" x="9.882" y="16.392"><tspan id="tspan7-3" style="font-style:normal;font-variant:normal;font-weight:700;font-stretch:normal;font-size:3.175px;font-family:Arial;-inkscape-font-specification:'Arial Bold';fill:#000;fill-opacity:1;stroke:#000;stroke-width:.28575;stroke-dasharray:none;stroke-opacity:1" x="9.882" y="16.392">JAN</tspan></text></g></svg>